solid cylinder
 facet normal 0.751817 -0.659372 0
  outer loop
   vertex 0.565813 -0.176776 -0.05
   vertex 0.587375 -0.152191 -0.05
   vertex 0.587375 -0.152191 0.05
  endloop
 endfacet
 facet normal 0.751817 -0.659372 0
  outer loop
   vertex 0.587375 -0.152191 0.05
   vertex 0.565813 -0.176776 0.05
   vertex 0.565813 -0.176776 -0.05
  endloop
 endfacet
 facet normal 0.831476 -0.555561 0
  outer loop
   vertex 0.587375 -0.152191 -0.05
   vertex 0.605543 -0.125 -0.05
   vertex 0.605543 -0.125 0.05
  endloop
 endfacet
 facet normal 0.831476 -0.555561 0
  outer loop
   vertex 0.605543 -0.125 0.05
   vertex 0.587375 -0.152191 0.05
   vertex 0.587375 -0.152191 -0.05
  endloop
 endfacet
 facet normal 0.896866 -0.442302 0
  outer loop
   vertex 0.605543 -0.125 -0.05
   vertex 0.620007 -0.095671 -0.05
   vertex 0.620007 -0.095671 0.05
  endloop
 endfacet
 facet normal 0.896866 -0.442302 0
  outer loop
   vertex 0.620007 -0.095671 0.05
   vertex 0.605543 -0.125 0.05
   vertex 0.605543 -0.125 -0.05
  endloop
 endfacet
 facet normal 0.946935 -0.321425 0
  outer loop
   vertex 0.620007 -0.095671 -0.05
   vertex 0.630518 -0.064705 -0.05
   vertex 0.630518 -0.064705 0.05
  endloop
 endfacet
 facet normal 0.946935 -0.321425 0
  outer loop
   vertex 0.630518 -0.064705 0.05
   vertex 0.620007 -0.095671 0.05
   vertex 0.620007 -0.095671 -0.05
  endloop
 endfacet
 facet normal 0.980784 -0.195096 0
  outer loop
   vertex 0.630518 -0.064705 -0.05
   vertex 0.636898 -0.0326315 -0.05
   vertex 0.636898 -0.0326315 0.05
  endloop
 endfacet
 facet normal 0.980784 -0.195096 0
  outer loop
   vertex 0.636898 -0.0326315 0.05
   vertex 0.630518 -0.064705 0.05
   vertex 0.630518 -0.064705 -0.05
  endloop
 endfacet
 facet normal 0.997858 -0.0654098 0
  outer loop
   vertex 0.639037 -8.32665e-17 0.05
   vertex 0.636898 -0.0326315 0.05
   vertex 0.636898 -0.0326315 -0.05
  endloop
 endfacet
 facet normal 0.997858 -0.0654098 -1.11896e-16
  outer loop
   vertex 0.636898 -0.0326315 -0.05
   vertex 0.639037 8.32665e-17 -0.05
   vertex 0.639037 -8.32665e-17 0.05
  endloop
 endfacet
 facet normal 0.997858 0.0654098 0
  outer loop
   vertex 0.639037 8.32665e-17 -0.05
   vertex 0.636898 0.0326315 -0.05
   vertex 0.636898 0.0326315 0.05
  endloop
 endfacet
 facet normal 0.997858 0.0654098 1.11896e-16
  outer loop
   vertex 0.636898 0.0326315 0.05
   vertex 0.639037 -8.32665e-17 0.05
   vertex 0.639037 8.32665e-17 -0.05
  endloop
 endfacet
 facet normal 0.980784 0.195096 0
  outer loop
   vertex 0.636898 0.0326315 -0.05
   vertex 0.630518 0.064705 -0.05
   vertex 0.630518 0.064705 0.05
  endloop
 endfacet
 facet normal 0.980784 0.195096 0
  outer loop
   vertex 0.630518 0.064705 0.05
   vertex 0.636898 0.0326315 0.05
   vertex 0.636898 0.0326315 -0.05
  endloop
 endfacet
 facet normal 0.946935 0.321425 0
  outer loop
   vertex 0.630518 0.064705 -0.05
   vertex 0.620007 0.095671 -0.05
   vertex 0.620007 0.095671 0.05
  endloop
 endfacet
 facet normal 0.946935 0.321425 0
  outer loop
   vertex 0.620007 0.095671 0.05
   vertex 0.630518 0.064705 0.05
   vertex 0.630518 0.064705 -0.05
  endloop
 endfacet
 facet normal 0.896866 0.442302 0
  outer loop
   vertex 0.620007 0.095671 -0.05
   vertex 0.605543 0.125 -0.05
   vertex 0.605543 0.125 0.05
  endloop
 endfacet
 facet normal 0.896866 0.442302 0
  outer loop
   vertex 0.605543 0.125 0.05
   vertex 0.620007 0.095671 0.05
   vertex 0.620007 0.095671 -0.05
  endloop
 endfacet
 facet normal 0.831476 0.555561 0
  outer loop
   vertex 0.605543 0.125 -0.05
   vertex 0.587375 0.152191 -0.05
   vertex 0.587375 0.152191 0.05
  endloop
 endfacet
 facet normal 0.831476 0.555561 0
  outer loop
   vertex 0.587375 0.152191 0.05
   vertex 0.605543 0.125 0.05
   vertex 0.605543 0.125 -0.05
  endloop
 endfacet
 facet normal 0.751817 0.659372 0
  outer loop
   vertex 0.587375 0.152191 -0.05
   vertex 0.565813 0.176776 -0.05
   vertex 0.565813 0.176776 0.05
  endloop
 endfacet
 facet normal 0.751817 0.659372 0
  outer loop
   vertex 0.565813 0.176776 0.05
   vertex 0.587375 0.152191 0.05
   vertex 0.587375 0.152191 -0.05
  endloop
 endfacet
 facet normal 0.659372 0.751817 0
  outer loop
   vertex 0.565813 0.176776 -0.05
   vertex 0.541228 0.198338 -0.05
   vertex 0.541228 0.198338 0.05
  endloop
 endfacet
 facet normal 0.659372 0.751817 0
  outer loop
   vertex 0.541228 0.198338 0.05
   vertex 0.565813 0.176776 0.05
   vertex 0.565813 0.176776 -0.05
  endloop
 endfacet
 facet normal 0.555561 0.831476 0
  outer loop
   vertex 0.541228 0.198338 -0.05
   vertex 0.514037 0.216506 -0.05
   vertex 0.514037 0.216506 0.05
  endloop
 endfacet
 facet normal 0.555561 0.831476 0
  outer loop
   vertex 0.514037 0.216506 0.05
   vertex 0.541228 0.198338 0.05
   vertex 0.541228 0.198338 -0.05
  endloop
 endfacet
 facet normal 0.442302 0.896866 0
  outer loop
   vertex 0.514037 0.216506 -0.05
   vertex 0.484708 0.23097 -0.05
   vertex 0.484708 0.23097 0.05
  endloop
 endfacet
 facet normal 0.442302 0.896866 0
  outer loop
   vertex 0.484708 0.23097 0.05
   vertex 0.514037 0.216506 0.05
   vertex 0.514037 0.216506 -0.05
  endloop
 endfacet
 facet normal 0.321425 0.946935 0
  outer loop
   vertex 0.484708 0.23097 -0.05
   vertex 0.453742 0.241481 -0.05
   vertex 0.453742 0.241481 0.05
  endloop
 endfacet
 facet normal 0.321425 0.946935 0
  outer loop
   vertex 0.453742 0.241481 0.05
   vertex 0.484708 0.23097 0.05
   vertex 0.484708 0.23097 -0.05
  endloop
 endfacet
 facet normal 0.195096 0.980784 0
  outer loop
   vertex 0.453742 0.241481 -0.05
   vertex 0.421668 0.247861 -0.05
   vertex 0.421668 0.247861 0.05
  endloop
 endfacet
 facet normal 0.195096 0.980784 0
  outer loop
   vertex 0.421668 0.247861 0.05
   vertex 0.453742 0.241481 0.05
   vertex 0.453742 0.241481 -0.05
  endloop
 endfacet
 facet normal 0.0654098 0.997858 0
  outer loop
   vertex 0.389037 0.25 0.05
   vertex 0.421668 0.247861 0.05
   vertex 0.421668 0.247861 -0.05
  endloop
 endfacet
 facet normal 0.0654098 0.997858 -7.04533e-17
  outer loop
   vertex 0.421668 0.247861 -0.05
   vertex 0.389037 0.25 -0.05
   vertex 0.389037 0.25 0.05
  endloop
 endfacet
 facet normal -0.0654098 0.997858 0
  outer loop
   vertex 0.389037 0.25 -0.05
   vertex 0.356405 0.247861 -0.05
   vertex 0.356405 0.247861 0.05
  endloop
 endfacet
 facet normal -0.0654098 0.997858 7.04533e-17
  outer loop
   vertex 0.356405 0.247861 0.05
   vertex 0.389037 0.25 0.05
   vertex 0.389037 0.25 -0.05
  endloop
 endfacet
 facet normal -0.195096 0.980784 0
  outer loop
   vertex 0.356405 0.247861 -0.05
   vertex 0.324332 0.241481 -0.05
   vertex 0.324332 0.241481 0.05
  endloop
 endfacet
 facet normal -0.195096 0.980784 0
  outer loop
   vertex 0.324332 0.241481 0.05
   vertex 0.356405 0.247861 0.05
   vertex 0.356405 0.247861 -0.05
  endloop
 endfacet
 facet normal -0.321425 0.946935 0
  outer loop
   vertex 0.324332 0.241481 -0.05
   vertex 0.293366 0.23097 -0.05
   vertex 0.293366 0.23097 0.05
  endloop
 endfacet
 facet normal -0.321425 0.946935 0
  outer loop
   vertex 0.293366 0.23097 0.05
   vertex 0.324332 0.241481 0.05
   vertex 0.324332 0.241481 -0.05
  endloop
 endfacet
 facet normal -0.442302 0.896866 0
  outer loop
   vertex 0.293366 0.23097 -0.05
   vertex 0.264037 0.216506 -0.05
   vertex 0.264037 0.216506 0.05
  endloop
 endfacet
 facet normal -0.442302 0.896866 0
  outer loop
   vertex 0.264037 0.216506 0.05
   vertex 0.293366 0.23097 0.05
   vertex 0.293366 0.23097 -0.05
  endloop
 endfacet
 facet normal -0.555561 0.831476 0
  outer loop
   vertex 0.264037 0.216506 -0.05
   vertex 0.236846 0.198338 -0.05
   vertex 0.236846 0.198338 0.05
  endloop
 endfacet
 facet normal -0.555561 0.831476 0
  outer loop
   vertex 0.236846 0.198338 0.05
   vertex 0.264037 0.216506 0.05
   vertex 0.264037 0.216506 -0.05
  endloop
 endfacet
 facet normal -0.659372 0.751817 0
  outer loop
   vertex 0.236846 0.198338 -0.05
   vertex 0.212261 0.176776 -0.05
   vertex 0.212261 0.176776 0.05
  endloop
 endfacet
 facet normal -0.659372 0.751817 0
  outer loop
   vertex 0.212261 0.176776 0.05
   vertex 0.236846 0.198338 0.05
   vertex 0.236846 0.198338 -0.05
  endloop
 endfacet
 facet normal -0.751817 0.659372 0
  outer loop
   vertex 0.212261 0.176776 -0.05
   vertex 0.190699 0.152191 -0.05
   vertex 0.190699 0.152191 0.05
  endloop
 endfacet
 facet normal -0.751817 0.659372 0
  outer loop
   vertex 0.190699 0.152191 0.05
   vertex 0.212261 0.176776 0.05
   vertex 0.212261 0.176776 -0.05
  endloop
 endfacet
 facet normal -0.831476 0.555561 0
  outer loop
   vertex 0.190699 0.152191 -0.05
   vertex 0.172531 0.125 -0.05
   vertex 0.172531 0.125 0.05
  endloop
 endfacet
 facet normal -0.831476 0.555561 0
  outer loop
   vertex 0.172531 0.125 0.05
   vertex 0.190699 0.152191 0.05
   vertex 0.190699 0.152191 -0.05
  endloop
 endfacet
 facet normal -0.896866 0.442302 0
  outer loop
   vertex 0.172531 0.125 -0.05
   vertex 0.158067 0.095671 -0.05
   vertex 0.158067 0.095671 0.05
  endloop
 endfacet
 facet normal -0.896866 0.442302 0
  outer loop
   vertex 0.158067 0.095671 0.05
   vertex 0.172531 0.125 0.05
   vertex 0.172531 0.125 -0.05
  endloop
 endfacet
 facet normal -0.946935 0.321425 0
  outer loop
   vertex 0.158067 0.095671 -0.05
   vertex 0.147556 0.064705 -0.05
   vertex 0.147556 0.064705 0.05
  endloop
 endfacet
 facet normal -0.946935 0.321425 0
  outer loop
   vertex 0.147556 0.064705 0.05
   vertex 0.158067 0.095671 0.05
   vertex 0.158067 0.095671 -0.05
  endloop
 endfacet
 facet normal -0.980784 0.195096 0
  outer loop
   vertex 0.147556 0.064705 -0.05
   vertex 0.141176 0.0326315 -0.05
   vertex 0.141176 0.0326315 0.05
  endloop
 endfacet
 facet normal -0.980784 0.195096 0
  outer loop
   vertex 0.141176 0.0326315 0.05
   vertex 0.147556 0.064705 0.05
   vertex 0.147556 0.064705 -0.05
  endloop
 endfacet
 facet normal -0.997858 0.0654098 0
  outer loop
   vertex 0.139037 8.32665e-17 0.05
   vertex 0.141176 0.0326315 0.05
   vertex 0.141176 0.0326315 -0.05
  endloop
 endfacet
 facet normal -0.997858 0.0654098 -1.11896e-16
  outer loop
   vertex 0.141176 0.0326315 -0.05
   vertex 0.139037 -8.32665e-17 -0.05
   vertex 0.139037 8.32665e-17 0.05
  endloop
 endfacet
 facet normal -0.997858 -0.0654098 0
  outer loop
   vertex 0.139037 -8.32665e-17 -0.05
   vertex 0.141176 -0.0326315 -0.05
   vertex 0.141176 -0.0326315 0.05
  endloop
 endfacet
 facet normal -0.997858 -0.0654098 1.11896e-16
  outer loop
   vertex 0.141176 -0.0326315 0.05
   vertex 0.139037 8.32665e-17 0.05
   vertex 0.139037 -8.32665e-17 -0.05
  endloop
 endfacet
 facet normal -0.980784 -0.195096 0
  outer loop
   vertex 0.141176 -0.0326315 -0.05
   vertex 0.147556 -0.064705 -0.05
   vertex 0.147556 -0.064705 0.05
  endloop
 endfacet
 facet normal -0.980784 -0.195096 0
  outer loop
   vertex 0.147556 -0.064705 0.05
   vertex 0.141176 -0.0326315 0.05
   vertex 0.141176 -0.0326315 -0.05
  endloop
 endfacet
 facet normal -0.946935 -0.321425 0
  outer loop
   vertex 0.147556 -0.064705 -0.05
   vertex 0.158067 -0.095671 -0.05
   vertex 0.158067 -0.095671 0.05
  endloop
 endfacet
 facet normal -0.946935 -0.321425 0
  outer loop
   vertex 0.158067 -0.095671 0.05
   vertex 0.147556 -0.064705 0.05
   vertex 0.147556 -0.064705 -0.05
  endloop
 endfacet
 facet normal -0.896866 -0.442302 0
  outer loop
   vertex 0.158067 -0.095671 -0.05
   vertex 0.172531 -0.125 -0.05
   vertex 0.172531 -0.125 0.05
  endloop
 endfacet
 facet normal -0.896866 -0.442302 0
  outer loop
   vertex 0.172531 -0.125 0.05
   vertex 0.158067 -0.095671 0.05
   vertex 0.158067 -0.095671 -0.05
  endloop
 endfacet
 facet normal -0.831476 -0.555561 0
  outer loop
   vertex 0.172531 -0.125 -0.05
   vertex 0.190699 -0.152191 -0.05
   vertex 0.190699 -0.152191 0.05
  endloop
 endfacet
 facet normal -0.831476 -0.555561 0
  outer loop
   vertex 0.190699 -0.152191 0.05
   vertex 0.172531 -0.125 0.05
   vertex 0.172531 -0.125 -0.05
  endloop
 endfacet
 facet normal -0.751817 -0.659372 0
  outer loop
   vertex 0.190699 -0.152191 -0.05
   vertex 0.212261 -0.176776 -0.05
   vertex 0.212261 -0.176776 0.05
  endloop
 endfacet
 facet normal -0.751817 -0.659372 0
  outer loop
   vertex 0.212261 -0.176776 0.05
   vertex 0.190699 -0.152191 0.05
   vertex 0.190699 -0.152191 -0.05
  endloop
 endfacet
 facet normal 0.659372 -0.751817 0
  outer loop
   vertex 0.565813 -0.176776 -0.05
   vertex 0.565813 -0.176776 0.05
   vertex 0.541228 -0.198338 0.05
  endloop
 endfacet
 facet normal 0.659372 -0.751817 0
  outer loop
   vertex 0.541228 -0.198338 0.05
   vertex 0.541228 -0.198338 -0.05
   vertex 0.565813 -0.176776 -0.05
  endloop
 endfacet
 facet normal 0.555561 -0.831476 0
  outer loop
   vertex 0.541228 -0.198338 -0.05
   vertex 0.541228 -0.198338 0.05
   vertex 0.514037 -0.216506 0.05
  endloop
 endfacet
 facet normal 0.555561 -0.831476 0
  outer loop
   vertex 0.514037 -0.216506 0.05
   vertex 0.514037 -0.216506 -0.05
   vertex 0.541228 -0.198338 -0.05
  endloop
 endfacet
 facet normal 0.442302 -0.896866 0
  outer loop
   vertex 0.514037 -0.216506 -0.05
   vertex 0.514037 -0.216506 0.05
   vertex 0.484708 -0.23097 0.05
  endloop
 endfacet
 facet normal 0.442302 -0.896866 0
  outer loop
   vertex 0.484708 -0.23097 0.05
   vertex 0.484708 -0.23097 -0.05
   vertex 0.514037 -0.216506 -0.05
  endloop
 endfacet
 facet normal 0.321425 -0.946935 0
  outer loop
   vertex 0.484708 -0.23097 -0.05
   vertex 0.484708 -0.23097 0.05
   vertex 0.453742 -0.241481 0.05
  endloop
 endfacet
 facet normal 0.321425 -0.946935 0
  outer loop
   vertex 0.453742 -0.241481 0.05
   vertex 0.453742 -0.241481 -0.05
   vertex 0.484708 -0.23097 -0.05
  endloop
 endfacet
 facet normal 0.195096 -0.980784 0
  outer loop
   vertex 0.453742 -0.241481 -0.05
   vertex 0.453742 -0.241481 0.05
   vertex 0.421668 -0.247861 0.05
  endloop
 endfacet
 facet normal 0.195096 -0.980784 0
  outer loop
   vertex 0.421668 -0.247861 0.05
   vertex 0.421668 -0.247861 -0.05
   vertex 0.453742 -0.241481 -0.05
  endloop
 endfacet
 facet normal 0.0654098 -0.997858 0
  outer loop
   vertex 0.389037 -0.25 -0.05
   vertex 0.421668 -0.247861 -0.05
   vertex 0.421668 -0.247861 0.05
  endloop
 endfacet
 facet normal 0.0654098 -0.997858 7.04533e-17
  outer loop
   vertex 0.421668 -0.247861 0.05
   vertex 0.389037 -0.25 0.05
   vertex 0.389037 -0.25 -0.05
  endloop
 endfacet
 facet normal -0.0654098 -0.997858 0
  outer loop
   vertex 0.389037 -0.25 0.05
   vertex 0.356405 -0.247861 0.05
   vertex 0.356405 -0.247861 -0.05
  endloop
 endfacet
 facet normal -0.0654098 -0.997858 -7.04533e-17
  outer loop
   vertex 0.356405 -0.247861 -0.05
   vertex 0.389037 -0.25 -0.05
   vertex 0.389037 -0.25 0.05
  endloop
 endfacet
 facet normal -0.195096 -0.980784 0
  outer loop
   vertex 0.356405 -0.247861 -0.05
   vertex 0.356405 -0.247861 0.05
   vertex 0.324332 -0.241481 0.05
  endloop
 endfacet
 facet normal -0.195096 -0.980784 -0
  outer loop
   vertex 0.324332 -0.241481 0.05
   vertex 0.324332 -0.241481 -0.05
   vertex 0.356405 -0.247861 -0.05
  endloop
 endfacet
 facet normal -0.321425 -0.946935 0
  outer loop
   vertex 0.324332 -0.241481 -0.05
   vertex 0.324332 -0.241481 0.05
   vertex 0.293366 -0.23097 0.05
  endloop
 endfacet
 facet normal -0.321425 -0.946935 -0
  outer loop
   vertex 0.293366 -0.23097 0.05
   vertex 0.293366 -0.23097 -0.05
   vertex 0.324332 -0.241481 -0.05
  endloop
 endfacet
 facet normal -0.442302 -0.896866 0
  outer loop
   vertex 0.293366 -0.23097 -0.05
   vertex 0.293366 -0.23097 0.05
   vertex 0.264037 -0.216506 0.05
  endloop
 endfacet
 facet normal -0.442302 -0.896866 -0
  outer loop
   vertex 0.264037 -0.216506 0.05
   vertex 0.264037 -0.216506 -0.05
   vertex 0.293366 -0.23097 -0.05
  endloop
 endfacet
 facet normal -0.555561 -0.831476 0
  outer loop
   vertex 0.264037 -0.216506 -0.05
   vertex 0.264037 -0.216506 0.05
   vertex 0.236846 -0.198338 0.05
  endloop
 endfacet
 facet normal -0.555561 -0.831476 -0
  outer loop
   vertex 0.236846 -0.198338 0.05
   vertex 0.236846 -0.198338 -0.05
   vertex 0.264037 -0.216506 -0.05
  endloop
 endfacet
 facet normal -0.659372 -0.751817 0
  outer loop
   vertex 0.236846 -0.198338 -0.05
   vertex 0.236846 -0.198338 0.05
   vertex 0.212261 -0.176776 0.05
  endloop
 endfacet
 facet normal -0.659372 -0.751817 -0
  outer loop
   vertex 0.212261 -0.176776 0.05
   vertex 0.212261 -0.176776 -0.05
   vertex 0.236846 -0.198338 -0.05
  endloop
 endfacet
endsolid cylinder
