solid cylinder
 facet normal 0.751817 -0.659372 0
  outer loop
   vertex 0.631425 -0.176776 -0.05
   vertex 0.652987 -0.152191 -0.05
   vertex 0.652987 -0.152191 0.05
  endloop
 endfacet
 facet normal 0.751817 -0.659372 0
  outer loop
   vertex 0.652987 -0.152191 0.05
   vertex 0.631425 -0.176776 0.05
   vertex 0.631425 -0.176776 -0.05
  endloop
 endfacet
 facet normal 0.831476 -0.555561 0
  outer loop
   vertex 0.652987 -0.152191 -0.05
   vertex 0.671155 -0.125 -0.05
   vertex 0.671155 -0.125 0.05
  endloop
 endfacet
 facet normal 0.831476 -0.555561 0
  outer loop
   vertex 0.671155 -0.125 0.05
   vertex 0.652987 -0.152191 0.05
   vertex 0.652987 -0.152191 -0.05
  endloop
 endfacet
 facet normal 0.896866 -0.442302 0
  outer loop
   vertex 0.671155 -0.125 -0.05
   vertex 0.685619 -0.095671 -0.05
   vertex 0.685619 -0.095671 0.05
  endloop
 endfacet
 facet normal 0.896866 -0.442302 0
  outer loop
   vertex 0.685619 -0.095671 0.05
   vertex 0.671155 -0.125 0.05
   vertex 0.671155 -0.125 -0.05
  endloop
 endfacet
 facet normal 0.946935 -0.321425 0
  outer loop
   vertex 0.685619 -0.095671 -0.05
   vertex 0.69613 -0.064705 -0.05
   vertex 0.69613 -0.064705 0.05
  endloop
 endfacet
 facet normal 0.946935 -0.321425 0
  outer loop
   vertex 0.69613 -0.064705 0.05
   vertex 0.685619 -0.095671 0.05
   vertex 0.685619 -0.095671 -0.05
  endloop
 endfacet
 facet normal 0.980784 -0.195096 0
  outer loop
   vertex 0.69613 -0.064705 -0.05
   vertex 0.70251 -0.0326315 -0.05
   vertex 0.70251 -0.0326315 0.05
  endloop
 endfacet
 facet normal 0.980784 -0.195096 0
  outer loop
   vertex 0.70251 -0.0326315 0.05
   vertex 0.69613 -0.064705 0.05
   vertex 0.69613 -0.064705 -0.05
  endloop
 endfacet
 facet normal 0.997858 -0.0654098 0
  outer loop
   vertex 0.704649 -8.32665e-17 0.05
   vertex 0.70251 -0.0326315 0.05
   vertex 0.70251 -0.0326315 -0.05
  endloop
 endfacet
 facet normal 0.997858 -0.0654098 -1.07752e-16
  outer loop
   vertex 0.70251 -0.0326315 -0.05
   vertex 0.704649 8.32665e-17 -0.05
   vertex 0.704649 -8.32665e-17 0.05
  endloop
 endfacet
 facet normal 0.997858 0.0654098 0
  outer loop
   vertex 0.704649 8.32665e-17 -0.05
   vertex 0.70251 0.0326315 -0.05
   vertex 0.70251 0.0326315 0.05
  endloop
 endfacet
 facet normal 0.997858 0.0654098 1.07752e-16
  outer loop
   vertex 0.70251 0.0326315 0.05
   vertex 0.704649 -8.32665e-17 0.05
   vertex 0.704649 8.32665e-17 -0.05
  endloop
 endfacet
 facet normal 0.980784 0.195096 0
  outer loop
   vertex 0.70251 0.0326315 -0.05
   vertex 0.69613 0.064705 -0.05
   vertex 0.69613 0.064705 0.05
  endloop
 endfacet
 facet normal 0.980784 0.195096 0
  outer loop
   vertex 0.69613 0.064705 0.05
   vertex 0.70251 0.0326315 0.05
   vertex 0.70251 0.0326315 -0.05
  endloop
 endfacet
 facet normal 0.946935 0.321425 0
  outer loop
   vertex 0.69613 0.064705 -0.05
   vertex 0.685619 0.095671 -0.05
   vertex 0.685619 0.095671 0.05
  endloop
 endfacet
 facet normal 0.946935 0.321425 0
  outer loop
   vertex 0.685619 0.095671 0.05
   vertex 0.69613 0.064705 0.05
   vertex 0.69613 0.064705 -0.05
  endloop
 endfacet
 facet normal 0.896866 0.442302 0
  outer loop
   vertex 0.685619 0.095671 -0.05
   vertex 0.671155 0.125 -0.05
   vertex 0.671155 0.125 0.05
  endloop
 endfacet
 facet normal 0.896866 0.442302 0
  outer loop
   vertex 0.671155 0.125 0.05
   vertex 0.685619 0.095671 0.05
   vertex 0.685619 0.095671 -0.05
  endloop
 endfacet
 facet normal 0.831476 0.555561 0
  outer loop
   vertex 0.671155 0.125 -0.05
   vertex 0.652987 0.152191 -0.05
   vertex 0.652987 0.152191 0.05
  endloop
 endfacet
 facet normal 0.831476 0.555561 0
  outer loop
   vertex 0.652987 0.152191 0.05
   vertex 0.671155 0.125 0.05
   vertex 0.671155 0.125 -0.05
  endloop
 endfacet
 facet normal 0.751817 0.659372 0
  outer loop
   vertex 0.652987 0.152191 -0.05
   vertex 0.631425 0.176776 -0.05
   vertex 0.631425 0.176776 0.05
  endloop
 endfacet
 facet normal 0.751817 0.659372 0
  outer loop
   vertex 0.631425 0.176776 0.05
   vertex 0.652987 0.152191 0.05
   vertex 0.652987 0.152191 -0.05
  endloop
 endfacet
 facet normal 0.659372 0.751817 0
  outer loop
   vertex 0.631425 0.176776 -0.05
   vertex 0.60684 0.198338 -0.05
   vertex 0.60684 0.198338 0.05
  endloop
 endfacet
 facet normal 0.659372 0.751817 0
  outer loop
   vertex 0.60684 0.198338 0.05
   vertex 0.631425 0.176776 0.05
   vertex 0.631425 0.176776 -0.05
  endloop
 endfacet
 facet normal 0.555561 0.831476 0
  outer loop
   vertex 0.60684 0.198338 -0.05
   vertex 0.579649 0.216506 -0.05
   vertex 0.579649 0.216506 0.05
  endloop
 endfacet
 facet normal 0.555561 0.831476 0
  outer loop
   vertex 0.579649 0.216506 0.05
   vertex 0.60684 0.198338 0.05
   vertex 0.60684 0.198338 -0.05
  endloop
 endfacet
 facet normal 0.442302 0.896866 0
  outer loop
   vertex 0.579649 0.216506 -0.05
   vertex 0.55032 0.23097 -0.05
   vertex 0.55032 0.23097 0.05
  endloop
 endfacet
 facet normal 0.442302 0.896866 0
  outer loop
   vertex 0.55032 0.23097 0.05
   vertex 0.579649 0.216506 0.05
   vertex 0.579649 0.216506 -0.05
  endloop
 endfacet
 facet normal 0.321425 0.946935 0
  outer loop
   vertex 0.55032 0.23097 -0.05
   vertex 0.519354 0.241481 -0.05
   vertex 0.519354 0.241481 0.05
  endloop
 endfacet
 facet normal 0.321425 0.946935 0
  outer loop
   vertex 0.519354 0.241481 0.05
   vertex 0.55032 0.23097 0.05
   vertex 0.55032 0.23097 -0.05
  endloop
 endfacet
 facet normal 0.195096 0.980784 0
  outer loop
   vertex 0.519354 0.241481 -0.05
   vertex 0.48728 0.247861 -0.05
   vertex 0.48728 0.247861 0.05
  endloop
 endfacet
 facet normal 0.195096 0.980784 0
  outer loop
   vertex 0.48728 0.247861 0.05
   vertex 0.519354 0.241481 0.05
   vertex 0.519354 0.241481 -0.05
  endloop
 endfacet
 facet normal 0.0654098 0.997858 0
  outer loop
   vertex 0.454649 0.25 0.05
   vertex 0.48728 0.247861 0.05
   vertex 0.48728 0.247861 -0.05
  endloop
 endfacet
 facet normal 0.0654098 0.997858 -7.04533e-17
  outer loop
   vertex 0.48728 0.247861 -0.05
   vertex 0.454649 0.25 -0.05
   vertex 0.454649 0.25 0.05
  endloop
 endfacet
 facet normal -0.0654098 0.997858 0
  outer loop
   vertex 0.454649 0.25 -0.05
   vertex 0.422017 0.247861 -0.05
   vertex 0.422017 0.247861 0.05
  endloop
 endfacet
 facet normal -0.0654098 0.997858 7.04533e-17
  outer loop
   vertex 0.422017 0.247861 0.05
   vertex 0.454649 0.25 0.05
   vertex 0.454649 0.25 -0.05
  endloop
 endfacet
 facet normal -0.195096 0.980784 0
  outer loop
   vertex 0.422017 0.247861 -0.05
   vertex 0.389944 0.241481 -0.05
   vertex 0.389944 0.241481 0.05
  endloop
 endfacet
 facet normal -0.195096 0.980784 0
  outer loop
   vertex 0.389944 0.241481 0.05
   vertex 0.422017 0.247861 0.05
   vertex 0.422017 0.247861 -0.05
  endloop
 endfacet
 facet normal -0.321425 0.946935 0
  outer loop
   vertex 0.389944 0.241481 -0.05
   vertex 0.358978 0.23097 -0.05
   vertex 0.358978 0.23097 0.05
  endloop
 endfacet
 facet normal -0.321425 0.946935 0
  outer loop
   vertex 0.358978 0.23097 0.05
   vertex 0.389944 0.241481 0.05
   vertex 0.389944 0.241481 -0.05
  endloop
 endfacet
 facet normal -0.442302 0.896866 0
  outer loop
   vertex 0.358978 0.23097 -0.05
   vertex 0.329649 0.216506 -0.05
   vertex 0.329649 0.216506 0.05
  endloop
 endfacet
 facet normal -0.442302 0.896866 0
  outer loop
   vertex 0.329649 0.216506 0.05
   vertex 0.358978 0.23097 0.05
   vertex 0.358978 0.23097 -0.05
  endloop
 endfacet
 facet normal -0.555561 0.831476 0
  outer loop
   vertex 0.329649 0.216506 -0.05
   vertex 0.302458 0.198338 -0.05
   vertex 0.302458 0.198338 0.05
  endloop
 endfacet
 facet normal -0.555561 0.831476 0
  outer loop
   vertex 0.302458 0.198338 0.05
   vertex 0.329649 0.216506 0.05
   vertex 0.329649 0.216506 -0.05
  endloop
 endfacet
 facet normal -0.659372 0.751817 0
  outer loop
   vertex 0.302458 0.198338 -0.05
   vertex 0.277873 0.176776 -0.05
   vertex 0.277873 0.176776 0.05
  endloop
 endfacet
 facet normal -0.659372 0.751817 0
  outer loop
   vertex 0.277873 0.176776 0.05
   vertex 0.302458 0.198338 0.05
   vertex 0.302458 0.198338 -0.05
  endloop
 endfacet
 facet normal -0.751817 0.659372 0
  outer loop
   vertex 0.277873 0.176776 -0.05
   vertex 0.256311 0.152191 -0.05
   vertex 0.256311 0.152191 0.05
  endloop
 endfacet
 facet normal -0.751817 0.659372 0
  outer loop
   vertex 0.256311 0.152191 0.05
   vertex 0.277873 0.176776 0.05
   vertex 0.277873 0.176776 -0.05
  endloop
 endfacet
 facet normal -0.831476 0.555561 0
  outer loop
   vertex 0.256311 0.152191 -0.05
   vertex 0.238143 0.125 -0.05
   vertex 0.238143 0.125 0.05
  endloop
 endfacet
 facet normal -0.831476 0.555561 0
  outer loop
   vertex 0.238143 0.125 0.05
   vertex 0.256311 0.152191 0.05
   vertex 0.256311 0.152191 -0.05
  endloop
 endfacet
 facet normal -0.896866 0.442302 0
  outer loop
   vertex 0.238143 0.125 -0.05
   vertex 0.223679 0.095671 -0.05
   vertex 0.223679 0.095671 0.05
  endloop
 endfacet
 facet normal -0.896866 0.442302 0
  outer loop
   vertex 0.223679 0.095671 0.05
   vertex 0.238143 0.125 0.05
   vertex 0.238143 0.125 -0.05
  endloop
 endfacet
 facet normal -0.946935 0.321425 0
  outer loop
   vertex 0.223679 0.095671 -0.05
   vertex 0.213168 0.064705 -0.05
   vertex 0.213168 0.064705 0.05
  endloop
 endfacet
 facet normal -0.946935 0.321425 0
  outer loop
   vertex 0.213168 0.064705 0.05
   vertex 0.223679 0.095671 0.05
   vertex 0.223679 0.095671 -0.05
  endloop
 endfacet
 facet normal -0.980784 0.195096 0
  outer loop
   vertex 0.213168 0.064705 -0.05
   vertex 0.206788 0.0326315 -0.05
   vertex 0.206788 0.0326315 0.05
  endloop
 endfacet
 facet normal -0.980784 0.195096 0
  outer loop
   vertex 0.206788 0.0326315 0.05
   vertex 0.213168 0.064705 0.05
   vertex 0.213168 0.064705 -0.05
  endloop
 endfacet
 facet normal -0.997858 0.0654098 0
  outer loop
   vertex 0.204649 8.32665e-17 0.05
   vertex 0.206788 0.0326315 0.05
   vertex 0.206788 0.0326315 -0.05
  endloop
 endfacet
 facet normal -0.997858 0.0654098 -1.11896e-16
  outer loop
   vertex 0.206788 0.0326315 -0.05
   vertex 0.204649 -8.32665e-17 -0.05
   vertex 0.204649 8.32665e-17 0.05
  endloop
 endfacet
 facet normal -0.997858 -0.0654098 0
  outer loop
   vertex 0.204649 -8.32665e-17 -0.05
   vertex 0.206788 -0.0326315 -0.05
   vertex 0.206788 -0.0326315 0.05
  endloop
 endfacet
 facet normal -0.997858 -0.0654098 1.11896e-16
  outer loop
   vertex 0.206788 -0.0326315 0.05
   vertex 0.204649 8.32665e-17 0.05
   vertex 0.204649 -8.32665e-17 -0.05
  endloop
 endfacet
 facet normal -0.980784 -0.195096 0
  outer loop
   vertex 0.206788 -0.0326315 -0.05
   vertex 0.213168 -0.064705 -0.05
   vertex 0.213168 -0.064705 0.05
  endloop
 endfacet
 facet normal -0.980784 -0.195096 0
  outer loop
   vertex 0.213168 -0.064705 0.05
   vertex 0.206788 -0.0326315 0.05
   vertex 0.206788 -0.0326315 -0.05
  endloop
 endfacet
 facet normal -0.946935 -0.321425 0
  outer loop
   vertex 0.213168 -0.064705 -0.05
   vertex 0.223679 -0.095671 -0.05
   vertex 0.223679 -0.095671 0.05
  endloop
 endfacet
 facet normal -0.946935 -0.321425 0
  outer loop
   vertex 0.223679 -0.095671 0.05
   vertex 0.213168 -0.064705 0.05
   vertex 0.213168 -0.064705 -0.05
  endloop
 endfacet
 facet normal -0.896866 -0.442302 0
  outer loop
   vertex 0.223679 -0.095671 -0.05
   vertex 0.238143 -0.125 -0.05
   vertex 0.238143 -0.125 0.05
  endloop
 endfacet
 facet normal -0.896866 -0.442302 0
  outer loop
   vertex 0.238143 -0.125 0.05
   vertex 0.223679 -0.095671 0.05
   vertex 0.223679 -0.095671 -0.05
  endloop
 endfacet
 facet normal -0.831476 -0.555561 0
  outer loop
   vertex 0.238143 -0.125 -0.05
   vertex 0.256311 -0.152191 -0.05
   vertex 0.256311 -0.152191 0.05
  endloop
 endfacet
 facet normal -0.831476 -0.555561 0
  outer loop
   vertex 0.256311 -0.152191 0.05
   vertex 0.238143 -0.125 0.05
   vertex 0.238143 -0.125 -0.05
  endloop
 endfacet
 facet normal -0.751817 -0.659372 0
  outer loop
   vertex 0.256311 -0.152191 -0.05
   vertex 0.277873 -0.176776 -0.05
   vertex 0.277873 -0.176776 0.05
  endloop
 endfacet
 facet normal -0.751817 -0.659372 0
  outer loop
   vertex 0.277873 -0.176776 0.05
   vertex 0.256311 -0.152191 0.05
   vertex 0.256311 -0.152191 -0.05
  endloop
 endfacet
 facet normal 0.659372 -0.751817 0
  outer loop
   vertex 0.631425 -0.176776 -0.05
   vertex 0.631425 -0.176776 0.05
   vertex 0.60684 -0.198338 0.05
  endloop
 endfacet
 facet normal 0.659372 -0.751817 0
  outer loop
   vertex 0.60684 -0.198338 0.05
   vertex 0.60684 -0.198338 -0.05
   vertex 0.631425 -0.176776 -0.05
  endloop
 endfacet
 facet normal 0.555561 -0.831476 0
  outer loop
   vertex 0.60684 -0.198338 -0.05
   vertex 0.60684 -0.198338 0.05
   vertex 0.579649 -0.216506 0.05
  endloop
 endfacet
 facet normal 0.555561 -0.831476 0
  outer loop
   vertex 0.579649 -0.216506 0.05
   vertex 0.579649 -0.216506 -0.05
   vertex 0.60684 -0.198338 -0.05
  endloop
 endfacet
 facet normal 0.442302 -0.896866 0
  outer loop
   vertex 0.579649 -0.216506 -0.05
   vertex 0.579649 -0.216506 0.05
   vertex 0.55032 -0.23097 0.05
  endloop
 endfacet
 facet normal 0.442302 -0.896866 0
  outer loop
   vertex 0.55032 -0.23097 0.05
   vertex 0.55032 -0.23097 -0.05
   vertex 0.579649 -0.216506 -0.05
  endloop
 endfacet
 facet normal 0.321425 -0.946935 0
  outer loop
   vertex 0.55032 -0.23097 -0.05
   vertex 0.55032 -0.23097 0.05
   vertex 0.519354 -0.241481 0.05
  endloop
 endfacet
 facet normal 0.321425 -0.946935 0
  outer loop
   vertex 0.519354 -0.241481 0.05
   vertex 0.519354 -0.241481 -0.05
   vertex 0.55032 -0.23097 -0.05
  endloop
 endfacet
 facet normal 0.195096 -0.980784 0
  outer loop
   vertex 0.519354 -0.241481 -0.05
   vertex 0.519354 -0.241481 0.05
   vertex 0.48728 -0.247861 0.05
  endloop
 endfacet
 facet normal 0.195096 -0.980784 0
  outer loop
   vertex 0.48728 -0.247861 0.05
   vertex 0.48728 -0.247861 -0.05
   vertex 0.519354 -0.241481 -0.05
  endloop
 endfacet
 facet normal 0.0654098 -0.997858 0
  outer loop
   vertex 0.454649 -0.25 -0.05
   vertex 0.48728 -0.247861 -0.05
   vertex 0.48728 -0.247861 0.05
  endloop
 endfacet
 facet normal 0.0654098 -0.997858 7.04533e-17
  outer loop
   vertex 0.48728 -0.247861 0.05
   vertex 0.454649 -0.25 0.05
   vertex 0.454649 -0.25 -0.05
  endloop
 endfacet
 facet normal -0.0654098 -0.997858 0
  outer loop
   vertex 0.454649 -0.25 0.05
   vertex 0.422017 -0.247861 0.05
   vertex 0.422017 -0.247861 -0.05
  endloop
 endfacet
 facet normal -0.0654098 -0.997858 -7.04533e-17
  outer loop
   vertex 0.422017 -0.247861 -0.05
   vertex 0.454649 -0.25 -0.05
   vertex 0.454649 -0.25 0.05
  endloop
 endfacet
 facet normal -0.195096 -0.980784 0
  outer loop
   vertex 0.422017 -0.247861 -0.05
   vertex 0.422017 -0.247861 0.05
   vertex 0.389944 -0.241481 0.05
  endloop
 endfacet
 facet normal -0.195096 -0.980784 -0
  outer loop
   vertex 0.389944 -0.241481 0.05
   vertex 0.389944 -0.241481 -0.05
   vertex 0.422017 -0.247861 -0.05
  endloop
 endfacet
 facet normal -0.321425 -0.946935 0
  outer loop
   vertex 0.389944 -0.241481 -0.05
   vertex 0.389944 -0.241481 0.05
   vertex 0.358978 -0.23097 0.05
  endloop
 endfacet
 facet normal -0.321425 -0.946935 -0
  outer loop
   vertex 0.358978 -0.23097 0.05
   vertex 0.358978 -0.23097 -0.05
   vertex 0.389944 -0.241481 -0.05
  endloop
 endfacet
 facet normal -0.442302 -0.896866 0
  outer loop
   vertex 0.358978 -0.23097 -0.05
   vertex 0.358978 -0.23097 0.05
   vertex 0.329649 -0.216506 0.05
  endloop
 endfacet
 facet normal -0.442302 -0.896866 -0
  outer loop
   vertex 0.329649 -0.216506 0.05
   vertex 0.329649 -0.216506 -0.05
   vertex 0.358978 -0.23097 -0.05
  endloop
 endfacet
 facet normal -0.555561 -0.831476 0
  outer loop
   vertex 0.329649 -0.216506 -0.05
   vertex 0.329649 -0.216506 0.05
   vertex 0.302458 -0.198338 0.05
  endloop
 endfacet
 facet normal -0.555561 -0.831476 -0
  outer loop
   vertex 0.302458 -0.198338 0.05
   vertex 0.302458 -0.198338 -0.05
   vertex 0.329649 -0.216506 -0.05
  endloop
 endfacet
 facet normal -0.659372 -0.751817 0
  outer loop
   vertex 0.302458 -0.198338 -0.05
   vertex 0.302458 -0.198338 0.05
   vertex 0.277873 -0.176776 0.05
  endloop
 endfacet
 facet normal -0.659372 -0.751817 -0
  outer loop
   vertex 0.277873 -0.176776 0.05
   vertex 0.277873 -0.176776 -0.05
   vertex 0.302458 -0.198338 -0.05
  endloop
 endfacet
endsolid cylinder
